<?xml version="1.0" standalone="no"?>
<!DOCTYPE svg PUBLIC "-//W3C//DTD SVG 20010904//EN"
 "http://www.w3.org/TR/2001/REC-SVG-20010904/DTD/svg10.dtd">
<svg version="1.0" xmlns="http://www.w3.org/2000/svg"
 width="24.000000pt" height="24.000000pt" viewBox="0 0 24.000000 24.000000"
 preserveAspectRatio="xMidYMid meet">
<metadata>
Created by potrace 1.16, written by Peter Selinger 2001-2019
</metadata>
<g transform="translate(0.000000,24.000000) scale(0.004687,-0.004687)"
fill="#000000" stroke="none">
<path d="M2745 5040 c-36 -16 -272 -259 -294 -302 -14 -28 -193 -214 -246
-257 -28 -23 -33 -23 -98 -13 -38 6 -71 13 -74 16 -3 2 1 38 8 78 26 147 3
426 -38 456 -29 21 -42 14 -91 -52 -26 -36 -74 -84 -107 -108 -114 -84 -158
-148 -175 -256 -5 -30 -11 -56 -13 -58 -7 -7 -541 66 -570 78 -15 6 -37 24
-48 39 -11 16 -26 29 -33 29 -7 0 -21 9 -32 21 -37 41 -102 69 -236 103 -74
19 -153 43 -174 54 -55 28 -74 16 -74 -46 0 -58 -20 -89 -63 -97 -31 -6 -97
-56 -97 -73 0 -4 18 -25 39 -46 39 -38 111 -169 111 -201 0 -9 -15 -34 -33
-56 -19 -21 -46 -62 -61 -91 -15 -29 -34 -63 -42 -74 -14 -21 -12 -26 45 -94
34 -40 61 -80 61 -89 0 -9 -11 -33 -25 -53 -32 -47 -31 -56 2 -69 51 -20 148
-61 163 -69 17 -9 18 -4 -15 -98 -17 -48 -27 -97 -28 -145 -2 -71 -2 -72 25
-75 15 -2 36 2 48 8 16 8 20 8 20 -3 0 -15 -57 -478 -116 -942 -19 -154 -41
-323 -47 -375 -12 -94 -12 -95 -41 -98 -59 -7 -95 8 -156 65 -44 40 -70 76
-94 127 -47 98 -78 248 -74 356 l3 85 -32 3 -33 3 0 -555 c0 -547 0 -556 20
-556 11 0 26 -12 34 -28 34 -65 139 -140 229 -163 45 -11 48 -14 42 -38 -9
-47 -85 -665 -85 -699 0 -23 8 -42 28 -61 26 -26 40 -29 302 -65 151 -21 290
-41 309 -45 l34 -7 -31 -35 c-45 -51 -56 -86 -38 -114 33 -50 104 -39 184 29
24 20 47 36 51 36 4 0 23 -12 42 -26 19 -14 60 -39 93 -56 50 -25 62 -28 86
-18 46 19 64 78 33 112 -19 21 -18 21 84 8 335 -45 510 -73 523 -84 20 -18
189 -40 240 -32 26 4 65 1 106 -10 36 -9 71 -13 79 -10 8 3 223 -24 477 -60
255 -35 672 -94 928 -129 256 -36 485 -68 510 -72 36 -5 41 -8 25 -14 -13 -6
-3 -7 25 -3 25 3 88 -2 140 -10 52 -9 103 -16 112 -16 23 0 32 38 58 250 108
873 138 1086 160 1128 19 35 21 51 15 90 -4 26 -7 52 -7 57 0 14 91 783 97
822 5 27 12 34 53 47 25 9 70 31 99 48 l53 32 0 107 0 107 -75 7 -76 7 7 61
c4 34 19 155 34 270 l26 207 42 43 c33 33 42 50 42 77 l0 33 -46 -59 c-55 -71
-74 -79 -74 -32 0 67 -110 255 -182 310 -18 14 -43 34 -55 45 -23 20 -68 44
-120 63 -44 16 -83 54 -83 80 0 27 87 120 112 120 11 0 29 -5 41 -12 12 -6 36
-11 52 -11 17 0 21 -1 10 -4 -17 -3 -34 -26 -62 -85 -11 -21 25 8 47 38 24 33
28 35 75 31 28 -2 66 -11 86 -21 57 -27 145 -111 163 -156 9 -22 20 -40 26
-40 6 0 10 96 10 273 l0 273 -57 108 c-90 170 -219 294 -384 371 -139 64 -157
1 -43 -148 63 -80 116 -185 138 -272 16 -61 32 -175 25 -175 -2 0 -130 18
-284 39 -154 22 -371 52 -482 67 -140 20 -203 32 -203 41 0 7 -17 30 -38 53
-31 32 -46 40 -74 40 -23 0 -41 7 -54 21 -10 12 -55 52 -100 88 -144 118 -256
212 -409 346 -215 187 -275 236 -312 251 -37 16 -69 17 -98 4z m85 -40 c24
-24 25 -38 4 -68 -28 -41 -104 -20 -104 29 0 25 35 59 60 59 11 0 29 -9 40
-20z m-845 -295 c0 -187 0 -191 -27 -245 -55 -111 -170 -191 -225 -155 -41 27
-92 136 -98 208 -3 41 35 146 71 198 36 52 135 131 108 87 -5 -9 -2 -9 9 1 9
7 17 21 17 30 1 24 38 64 54 58 7 -3 26 8 42 24 l28 30 10 -23 c6 -13 10 -108
11 -213z m890 186 c3 -10 51 -58 108 -107 56 -49 134 -118 173 -154 88 -81
323 -285 373 -323 31 -25 33 -28 11 -23 -58 14 -1106 156 -1116 152 -20 -8
-23 31 -5 63 9 17 77 105 151 195 144 176 151 182 246 188 28 2 40 7 37 16 -3
6 0 12 5 12 6 0 13 -8 17 -19z m-2179 -122 c31 -8 41 -15 37 -27 -3 -13 19
-27 91 -60 52 -24 109 -55 127 -68 18 -13 40 -24 49 -24 8 0 24 -16 35 -36 10
-19 36 -50 56 -69 26 -24 36 -39 32 -53 -2 -11 3 -34 12 -52 9 -17 14 -34 11
-37 -3 -3 -32 11 -64 31 -46 28 -70 36 -107 36 -55 0 -58 -19 -4 -32 19 -5 67
-20 106 -34 64 -23 72 -28 63 -44 -6 -10 -10 -32 -10 -49 0 -26 8 -35 54 -62
47 -28 53 -35 45 -52 -6 -10 -8 -21 -6 -24 3 -3 -9 -24 -28 -48 -18 -24 -47
-68 -64 -99 -47 -81 -130 -141 -218 -156 -85 -14 -108 -26 -70 -36 60 -15 134
10 216 73 24 18 48 33 53 33 20 0 -51 -105 -105 -156 -49 -46 -70 -57 -145
-80 -48 -15 -91 -31 -96 -35 -6 -5 -27 -9 -48 -9 -20 0 -63 -10 -94 -21 -43
-16 -58 -18 -64 -9 -11 18 15 121 45 181 22 42 29 49 41 38 8 -6 17 -9 21 -5
15 14 -61 69 -139 101 -49 20 -82 39 -81 47 2 18 24 80 34 98 12 19 30 59 67
142 55 122 157 204 268 215 64 7 76 19 43 46 -20 16 -34 18 -81 14 -32 -3 -77
-14 -100 -25 -24 -11 -65 -27 -92 -36 -66 -21 -82 -8 -113 88 -13 41 -39 97
-58 125 -35 51 -35 52 -18 76 10 13 25 25 34 25 9 0 36 9 60 20 33 15 66 20
132 20 48 0 87 4 87 9 0 16 -93 30 -153 24 -46 -5 -57 -3 -57 9 0 8 2 17 5 20
6 6 124 -14 191 -33z m565 -244 c63 -8 163 -21 223 -29 59 -8 109 -16 111 -18
1 -2 5 -24 8 -50 l6 -46 -59 24 c-63 25 -191 49 -322 59 -76 7 -77 7 -103 47
l-27 41 25 -7 c14 -3 76 -13 138 -21z m1073 -51 c9 -8 16 -22 16 -31 0 -12 -9
-14 -52 -8 -68 9 -73 13 -52 36 21 23 67 25 88 3z m-26 -94 c266 -38 1203
-168 2046 -285 219 -30 409 -55 422 -55 21 0 23 -3 17 -32 -8 -48 -16 -52 -61
-29 -23 12 -51 21 -63 21 -25 0 -109 -81 -109 -105 0 -21 -48 -19 -252 10
-1409 200 -2449 344 -2490 345 -5 0 -8 7 -8 15 0 15 16 20 53 17 44 -4 147 88
147 130 0 11 5 16 10 13 6 -3 135 -24 288 -45z m-953 0 c148 -22 235 -47 305
-88 25 -15 53 -27 63 -28 10 -1 34 -19 55 -40 20 -22 60 -59 87 -82 42 -35 45
-39 17 -26 -30 14 -35 14 -57 0 -18 -12 -25 -26 -25 -49 -1 -63 -65 -187 -96
-187 -23 0 -53 -37 -49 -60 2 -11 0 -18 -6 -15 -5 4 -6 11 -3 17 4 5 -5 2 -20
-7 -14 -9 -23 -22 -19 -28 3 -5 1 -7 -4 -4 -10 6 -123 -49 -123 -59 0 -3 5 -2
12 2 7 4 8 3 4 -5 -4 -6 -11 -9 -16 -6 -8 5 -179 -53 -220 -75 -20 -11 -21 -9
-18 48 2 33 6 58 9 56 4 -2 10 13 14 34 11 61 53 138 95 176 22 20 37 36 34
36 -4 0 -1 7 6 15 14 17 35 21 25 4 -4 -5 24 5 62 25 46 23 112 43 194 61 148
31 161 39 124 83 -15 18 -32 32 -39 32 -6 0 -27 13 -46 29 -57 46 -98 62 -176
68 -67 5 -78 3 -129 -23 -31 -15 -76 -47 -101 -69 -28 -27 -44 -36 -44 -26 0
8 -14 29 -31 47 -29 30 -30 33 -19 71 10 34 10 45 -5 72 -9 18 -12 30 -6 27 6
-4 71 -16 146 -26z m-787 -49 c10 8 7 4 -6 -9 -26 -25 -99 -173 -108 -221 -4
-17 -9 -31 -13 -31 -3 0 -25 22 -48 49 -40 46 -56 91 -33 91 6 0 10 7 10 15 0
8 5 15 10 15 6 0 31 27 56 59 l46 59 34 -20 c30 -18 37 -19 52 -7z m3196 -57
c9 -8 16 -22 16 -31 0 -13 -9 -15 -57 -9 -31 4 -59 9 -62 11 -2 3 4 14 14 25
22 24 67 26 89 4z m-2100 -48 c28 -13 62 -32 76 -43 l24 -21 -59 -12 c-216
-42 -355 -108 -414 -194 -75 -110 -132 -375 -85 -393 8 -3 54 13 102 35 48 22
111 48 140 56 108 31 227 102 303 183 49 51 99 159 99 213 0 17 5 30 10 30 16
0 96 -115 130 -187 30 -63 31 -68 14 -80 -10 -7 -22 -13 -26 -13 -5 0 -33 -18
-63 -40 -30 -22 -59 -40 -65 -40 -5 0 -10 -4 -10 -9 0 -5 -9 -13 -21 -16 -29
-10 -170 -140 -226 -210 -27 -33 -65 -78 -86 -100 -21 -22 -50 -60 -65 -85
-58 -93 -102 -168 -102 -175 0 -3 -6 -13 -14 -20 -18 -18 -89 -193 -138 -340
-29 -86 -134 -301 -176 -360 -53 -75 -170 -201 -200 -216 -15 -7 -35 -20 -45
-28 -9 -8 -20 -12 -23 -9 -6 7 20 252 42 393 8 50 19 131 25 180 5 50 14 106
19 125 6 19 10 54 10 77 0 23 7 86 15 140 8 54 26 195 40 313 15 118 31 221
37 228 6 6 17 12 24 12 23 0 157 141 180 190 12 25 40 84 63 132 23 47 44 101
47 120 10 52 87 123 195 181 42 22 52 23 110 15 34 -4 85 -19 113 -32z m501
-52 c161 -23 505 -71 825 -115 80 -11 178 -24 217 -29 40 -5 85 -11 100 -14
16 -4 143 -22 283 -42 140 -19 284 -39 320 -44 36 -5 119 -16 185 -25 66 -8
161 -22 210 -30 50 -8 115 -17 145 -20 84 -10 92 -13 80 -35 -16 -30 -12 -50
20 -87 47 -53 50 -50 -96 -97 l-82 -27 -183 10 c-101 6 -222 17 -269 26 -47 9
-105 19 -130 22 -41 5 -44 4 -30 -11 27 -28 373 -86 515 -86 98 0 208 25 283
65 36 19 76 35 87 35 26 0 113 -54 122 -76 3 -9 -3 -24 -14 -36 -23 -23 -162
-72 -249 -87 -79 -14 -307 -31 -420 -31 -106 0 -215 18 -190 32 10 5 31 5 53
-1 47 -13 111 -14 97 -2 -5 5 -43 16 -85 25 -64 14 -414 143 -539 199 l-35 15
35 1 c19 0 89 -10 155 -24 135 -28 168 -30 163 -13 -5 14 -24 20 -138 43 -79
16 -168 43 -215 65 -87 40 -205 81 -285 99 -249 57 -286 63 -347 58 -37 -3
-63 -1 -63 5 0 14 -203 7 -296 -10 -71 -13 -252 -60 -296 -77 -14 -6 -20 4
-34 51 -22 78 -45 116 -118 199 -104 118 -102 109 -21 101 39 -4 147 -19 240
-32z m-141 -233 c24 -47 47 -104 51 -126 14 -81 36 -145 51 -145 9 0 14 11 14
30 0 34 22 49 45 30 23 -19 18 -49 -14 -81 -25 -24 -38 -29 -78 -29 -69 0 -93
31 -56 72 17 20 27 115 11 124 -4 3 -8 16 -8 29 0 29 -36 113 -75 175 -23 36
-24 41 -7 26 12 -10 41 -57 66 -105z m2855 77 c5 -13 12 -38 16 -55 6 -29 4
-33 -14 -33 -28 0 -32 11 -25 64 8 52 11 56 23 24z m-1971 -117 c29 -4 57 -12
63 -18 7 -7 -2 -8 -33 -2 -75 14 -232 11 -254 -6 -11 -8 -41 -15 -70 -15 -27
0 -86 -9 -130 -19 -43 -11 -103 -22 -133 -25 -29 -3 -82 -19 -118 -35 -64 -30
-83 -31 -115 -3 -32 27 -20 41 53 62 70 21 231 55 299 63 62 7 383 6 438 -2z
m-160 -58 c-10 -2 -26 -2 -35 0 -10 3 -2 5 17 5 19 0 27 -2 18 -5z m213 -13
c48 -5 102 -16 120 -23 19 -8 43 -17 53 -21 13 -4 16 -10 9 -17 -6 -6 -26 -6
-59 2 -27 6 -110 24 -184 39 -121 25 -129 28 -80 29 30 0 94 -4 141 -9z
m-1391 -75 c-14 -8 -29 -14 -35 -14 -5 0 1 6 15 14 14 8 30 14 35 14 6 0 -1
-6 -15 -14z m467 -11 c10 -26 -16 -60 -80 -100 -210 -133 -472 -371 -518 -469
-11 -23 -32 -53 -46 -66 -25 -23 -25 -21 7 36 43 75 117 194 167 264 80 113
304 297 409 335 51 19 54 19 61 0z m253 6 c-8 -5 -22 -9 -30 -9 -10 0 -8 3 5
9 27 12 43 12 25 0z m480 -29 c0 -11 -16 -16 -94 -30 -63 -12 -123 -14 -114
-6 2 3 27 10 54 16 27 5 65 14 84 18 49 12 70 12 70 2z m309 -95 c-11 -11
-119 -54 -119 -47 0 12 73 49 99 50 13 1 22 -1 20 -3z m-1074 -25 c-6 -5 -21
-12 -35 -15 -24 -7 -24 -6 -6 8 21 17 57 23 41 7z m618 -50 c15 -6 55 -15 90
-21 51 -8 66 -15 88 -41 25 -30 26 -31 55 -17 16 9 47 21 69 27 22 7 61 21 87
33 66 29 87 21 151 -64 30 -40 64 -82 76 -92 12 -11 21 -31 21 -49 0 -29 1
-29 42 -23 23 4 75 1 115 -6 60 -10 78 -10 95 1 24 15 18 20 58 -59 18 -36 48
-86 66 -113 26 -35 33 -54 28 -72 -7 -28 10 -55 35 -55 9 0 29 11 46 24 28 23
32 23 59 9 38 -20 175 -29 204 -14 20 10 23 7 46 -41 14 -29 46 -77 71 -105
31 -35 41 -53 31 -53 -26 0 -18 -20 14 -38 16 -9 30 -23 30 -29 0 -7 13 -19
29 -27 31 -16 49 -46 28 -46 -18 0 -56 27 -109 78 -25 24 -51 43 -58 40 -21
-7 65 -104 115 -129 25 -13 62 -32 81 -42 19 -10 33 -21 30 -26 -3 -4 -34 -14
-68 -21 -91 -17 -94 -18 -79 -33 7 -7 17 -12 23 -12 6 0 13 -6 16 -13 3 -9 -2
-10 -22 -2 -36 13 -39 0 -10 -59 13 -29 22 -56 19 -62 -4 -5 1 -12 10 -15 23
-9 43 -53 64 -146 24 -107 34 -186 32 -272 -2 -77 -18 -197 -32 -235 l-10 -24
-27 26 c-43 42 -59 35 -78 -30 -9 -32 -27 -77 -41 -101 -26 -46 -25 -72 3 -72
13 0 14 -3 4 -15 -17 -21 -51 -20 -43 1 5 14 3 15 -15 5 -11 -6 -29 -11 -39
-11 -10 0 -38 -11 -63 -24 -89 -46 -271 -74 -305 -46 -24 20 -18 39 33 90 76
79 112 126 112 149 0 11 -4 21 -8 21 -9 0 -72 -86 -72 -99 0 -4 -31 -29 -69
-55 -92 -63 -99 -71 -76 -97 11 -11 39 -29 64 -40 l46 -21 -70 -64 c-124 -114
-256 -192 -450 -265 -135 -50 -229 -68 -365 -69 -63 -1 -121 -1 -127 -1 -20 1
-15 22 11 42 51 40 76 148 38 168 -13 7 -30 4 -58 -8 -105 -47 -214 -51 -326
-12 -60 20 -122 62 -132 86 -3 9 13 25 44 45 80 51 77 71 -18 129 -37 22 -80
51 -96 64 l-30 24 46 27 c60 35 75 34 87 -10 6 -20 18 -45 27 -55 16 -18 17
-17 33 14 9 17 28 38 43 46 25 14 30 14 69 -7 23 -12 43 -21 44 -20 11 13 35
70 35 83 0 15 55 45 83 45 7 0 21 -16 31 -36 9 -20 19 -34 21 -32 7 6 -33 120
-45 132 -18 18 -11 35 20 51 37 19 40 19 40 -3 0 -23 19 -42 41 -42 9 0 52 23
94 52 69 47 86 53 175 69 173 30 195 56 110 128 -49 41 -51 45 -46 85 7 60 25
108 49 129 26 23 31 69 30 245 -1 129 0 132 22 138 12 3 37 4 56 2 29 -3 40
-12 77 -68 58 -88 110 -191 114 -226 3 -25 -2 -32 -37 -49 -104 -53 -177 -98
-189 -118 -8 -12 -16 -43 -19 -69 l-4 -47 51 27 c28 15 54 28 58 30 4 2 16
-15 28 -37 21 -43 34 -51 43 -27 3 8 18 23 32 32 25 16 28 16 75 -6 41 -19 52
-21 65 -10 8 7 15 18 15 24 0 43 23 85 52 97 28 12 32 11 49 -10 24 -29 26 -7
4 46 -8 19 -15 41 -15 49 0 20 56 32 128 25 17 -1 15 -108 -3 -191 -27 -124
-14 -165 45 -140 16 7 30 16 30 20 0 5 3 15 6 24 5 12 -1 16 -23 16 l-29 0 12
73 c24 136 27 246 10 333 -25 134 -84 319 -126 402 -22 42 -40 84 -40 91 0 8
-12 27 -26 42 -14 15 -40 47 -57 72 -86 124 -158 211 -249 300 -87 84 -105 97
-134 97 -19 0 -34 -3 -34 -7 0 -5 31 -30 67 -58 37 -27 108 -89 159 -138 86
-82 95 -94 137 -190 60 -137 82 -206 70 -218 -10 -10 -82 60 -257 248 -32 35
-63 60 -68 57 -4 -3 16 -40 46 -82 29 -42 70 -111 91 -152 39 -77 78 -180 71
-187 -2 -2 -35 -7 -72 -11 -84 -9 -159 1 -185 24 -11 9 -21 15 -24 12 -3 -3 4
-13 15 -23 26 -24 25 -41 -2 -49 -49 -13 -56 -8 -64 42 -3 26 -10 52 -14 57
-4 6 -15 35 -25 65 -10 30 -22 60 -28 65 -7 7 -7 4 -2 -10 4 -11 17 -66 28
-122 17 -84 19 -104 8 -117 -8 -9 -20 -16 -28 -16 -18 0 -73 -38 -73 -51 0
-14 33 -11 58 7 62 43 86 -6 80 -162 -3 -83 -7 -97 -36 -140 -47 -74 -102
-181 -102 -202 0 -10 16 -33 35 -52 19 -19 35 -37 35 -41 0 -4 -18 -10 -40
-14 -36 -6 -44 -4 -65 19 -23 25 -26 26 -47 12 -13 -9 -35 -31 -50 -50 -25
-31 -30 -33 -53 -23 -17 8 -25 20 -25 37 -5 330 -8 397 -24 430 -17 39 -17 62
0 -257 7 -130 1 -140 -64 -107 -83 42 -296 274 -252 274 16 0 80 62 74 71 -3
5 -14 9 -24 9 -14 0 -24 14 -37 50 -10 28 -20 50 -23 50 -10 0 -40 -81 -40
-109 0 -23 -10 -38 -47 -68 -27 -20 -70 -58 -98 -83 l-50 -45 -6 100 c-5 100
-34 275 -49 306 -5 9 -12 33 -15 53 -4 20 -11 39 -16 42 -14 8 -10 -48 4 -76
15 -27 26 -73 33 -130 2 -19 7 -48 9 -64 7 -39 -56 -257 -98 -341 -22 -45 -88
-134 -99 -135 -4 0 -15 17 -23 37 -12 28 -18 34 -28 24 -22 -22 69 -236 146
-345 29 -40 34 -55 30 -82 -4 -27 -2 -34 11 -34 9 0 16 5 16 10 0 18 23 10 64
-23 23 -18 58 -44 79 -56 35 -21 37 -25 23 -40 -9 -10 -46 -28 -82 -41 -62
-21 -72 -22 -126 -11 -75 15 -132 45 -243 125 -49 35 -92 63 -94 60 -2 -2 10
-21 28 -42 17 -20 47 -58 66 -83 37 -49 65 -66 160 -97 33 -11 80 -27 104 -36
31 -12 47 -14 56 -6 10 9 29 0 77 -36 83 -62 148 -90 255 -110 l88 -16 84 31
c82 30 83 30 76 8 -4 -12 -9 -34 -12 -49 -3 -16 -9 -28 -14 -28 -4 0 -15 -16
-25 -35 -20 -43 -138 -134 -217 -170 l-58 -25 -29 20 c-39 28 -96 47 -166 55
-100 13 -178 46 -262 113 -40 32 -45 33 -60 19 -13 -13 -13 -21 -4 -42 6 -14
8 -25 3 -25 -14 0 -75 88 -111 160 -18 36 -41 75 -52 87 -12 12 -21 37 -21 59
-1 24 -8 39 -17 42 -12 4 -13 2 -2 -9 6 -7 12 -18 12 -23 0 -19 -39 47 -46 76
-3 16 -14 34 -23 40 -10 7 -20 18 -22 23 -6 16 -19 7 -59 -37 -31 -36 -39 -40
-57 -30 -28 15 -35 37 -21 70 6 16 12 113 14 237 l4 210 30 39 c16 22 30 43
30 48 0 4 10 8 23 8 50 0 62 47 22 84 -22 20 -23 27 -14 59 11 40 -8 149 -42
247 l-19 55 57 58 c32 32 72 72 88 89 17 16 47 41 68 55 41 28 46 47 20 76
-15 16 -18 39 -18 141 l0 121 59 30 c58 29 87 57 74 71 -4 3 -43 -7 -87 -22
-44 -16 -83 -26 -87 -22 -13 14 17 37 69 54 155 50 226 136 246 297 3 28 12
52 19 55 15 5 11 -45 -10 -143 -15 -70 -28 -92 -89 -152 -74 -73 -60 -82 27
-18 9 6 17 6 26 -3 9 -9 6 -18 -14 -39 -26 -28 -62 -128 -52 -144 15 -26 38 0
86 99 28 59 52 112 52 117 1 6 -9 9 -22 8 -37 -4 -36 21 2 79 20 29 38 68 42
86 10 50 43 69 132 77 42 3 88 11 102 17 26 12 68 12 111 2 21 -5 27 -2 32 15
3 12 1 24 -4 27 -5 3 8 18 29 34 21 15 57 50 78 76 57 71 65 76 89 54 11 -10
32 -23 48 -29z m73 34 c20 -19 4 -20 -22 0 -12 9 -14 14 -6 15 7 0 20 -7 28
-15z m-1810 -22 c-3 -16 -26 -194 -51 -398 -55 -445 -124 -982 -130 -1010 -3
-17 -20 -23 -102 -38 -54 -10 -106 -21 -115 -23 -14 -4 -15 0 -7 28 5 18 23
141 39 273 17 132 54 416 82 630 28 215 52 415 52 446 l1 56 90 17 c50 9 97
23 105 31 24 25 42 19 36 -12z m2044 -2 c-8 -5 -33 -5 -55 -1 -40 8 -40 8 15
9 35 0 50 -3 40 -8z m-497 -24 c-22 -39 -84 -95 -122 -110 -32 -13 -74 -17
-182 -17 -84 0 -138 4 -134 9 3 6 51 7 113 4 133 -7 192 12 273 87 51 48 70
57 52 27z m440 6 c-13 -2 -33 -2 -45 0 -13 2 -3 4 22 4 25 0 35 -2 23 -4z
m375 -71 c80 -82 122 -98 255 -95 48 1 87 -2 87 -6 0 -21 -194 -29 -251 -10
-51 17 -95 54 -134 112 -34 50 -41 67 -29 67 3 0 36 -31 72 -68z m696 -38 c41
-7 49 -24 12 -24 -34 0 -76 17 -76 31 0 6 6 9 14 6 8 -3 31 -9 50 -13z m-1
-57 c4 -10 -2 -13 -19 -9 -13 2 -24 8 -24 13 0 14 37 10 43 -4z m-314 -94 c16
-58 98 -145 169 -180 50 -24 67 -27 139 -26 46 1 83 -2 83 -6 0 -13 -118 -20
-176 -11 -100 16 -163 68 -228 190 -31 58 -36 74 -25 81 18 10 23 4 38 -48z
m1345 -75 c-11 -18 -64 -451 -57 -472 4 -15 2 -18 -12 -13 -9 4 -55 10 -101
13 -122 10 -119 6 -99 149 22 167 20 161 68 194 23 16 62 48 87 72 25 23 54
43 64 44 11 1 22 7 24 13 2 7 10 12 18 12 9 0 12 -5 8 -12z m-3600 -202 c-3
-9 -10 -16 -15 -16 -5 0 -4 9 3 20 14 22 21 20 12 -4z m3311 -3 c-2 -10 -9
-64 -16 -121 -7 -57 -15 -105 -19 -107 -16 -10 -105 32 -135 63 -19 18 -60 46
-92 61 l-58 28 80 19 c44 10 114 31 155 46 92 32 89 32 85 11z m-3079 -295
c-7 -92 -36 -154 -97 -205 -28 -24 -56 -43 -62 -43 -6 0 8 19 30 43 74 75 110
188 114 357 l2 65 9 -75 c5 -41 7 -105 4 -142z m2761 137 c46 0 83 -3 83 -6 0
-8 -96 -29 -136 -29 -39 0 -68 12 -101 43 -36 32 -27 38 25 14 36 -16 67 -22
129 -22z m-3168 -250 c-34 -133 -72 -239 -134 -371 -33 -72 -84 -109 -275
-200 l-165 -79 -95 0 c-111 0 -159 14 -200 58 -32 34 -38 49 -17 42 6 -3 42
-9 79 -14 179 -25 365 49 535 212 118 114 170 197 286 460 9 20 18 37 20 37 2
0 -14 -65 -34 -145z m2366 -57 c95 -73 135 -126 135 -182 0 -24 3 -27 10 -16
8 12 10 11 10 -7 0 -27 -2 -27 -86 -11 -54 10 -69 9 -105 -5 l-41 -16 5 32 c7
47 -20 236 -38 263 -14 22 -14 23 2 17 10 -4 59 -37 108 -75z m-139 -5 c19
-79 19 -247 0 -262 -17 -15 -20 -11 -62 85 -17 40 -52 104 -78 143 -25 39 -46
74 -46 76 0 3 19 5 43 6 23 0 60 4 82 8 22 4 42 6 44 5 2 -2 10 -29 17 -61z
m1439 -193 c-8 -13 -75 -533 -75 -584 l0 -39 -22 29 c-46 59 -115 98 -165 92
-34 -4 -35 -3 -30 26 3 17 13 100 23 184 18 148 20 153 44 159 14 3 48 29 75
58 31 32 67 58 95 68 55 19 63 20 55 7z m-3430 -71 c26 -99 35 -228 19 -271
-17 -50 -46 -91 -81 -113 l-27 -18 23 34 c74 111 89 224 48 349 -24 72 -26
103 -5 82 5 -5 15 -33 23 -63z m869 -116 c-8 -44 -74 -236 -84 -243 -3 -3 -21
-25 -38 -50 -17 -25 -43 -58 -58 -75 l-26 -30 4 38 c2 20 2 37 0 37 -8 0 -32
-71 -32 -95 0 -42 27 -29 78 36 78 100 160 272 186 392 4 15 10 27 15 27 5 0
32 -28 59 -62 69 -86 136 -149 204 -192 61 -38 82 -65 72 -90 -7 -19 -12 -19
-44 -1 -38 22 -69 18 -181 -21 -155 -54 -267 -119 -355 -205 -24 -24 -45 -41
-48 -38 -2 2 -18 28 -36 57 -17 28 -39 58 -48 65 -10 6 -24 25 -32 40 -13 26
-13 32 3 59 9 16 17 34 17 39 0 11 110 148 135 169 16 13 17 12 12 -15 -14
-71 -18 -143 -9 -149 15 -9 21 16 29 107 l6 82 85 78 c46 42 86 77 89 77 2 0
1 -17 -3 -37z m2274 -25 c-12 -86 -15 -93 -32 -79 -11 9 -30 67 -40 121 -1 4
41 16 70 19 8 1 8 -18 2 -61z m-105 45 c10 -17 18 -93 10 -93 -4 0 -23 13 -42
29 -30 24 -32 30 -22 49 11 21 45 30 54 15z m-3434 -70 c-37 -39 -99 -86 -106
-79 -3 3 23 33 58 67 35 33 65 56 67 49 2 -6 -6 -23 -19 -37z m1056 -42 c-8
-17 -20 -31 -26 -31 -10 0 3 32 24 58 17 22 19 5 2 -27z m-982 12 c-8 -24 -24
-43 -34 -43 -16 0 -9 39 9 49 25 15 32 13 25 -6z m3417 -248 c-19 -18 -61 -24
-67 -8 -4 12 16 20 57 22 21 1 23 -1 10 -14z m120 -46 c112 -50 131 -98 133
-331 1 -54 -2 -60 -44 -105 -24 -27 -53 -62 -65 -78 -19 -27 -27 -29 -90 -33
-45 -3 -84 1 -114 12 -50 17 -56 16 -41 -12 10 -19 55 -32 119 -32 29 0 32 -3
32 -31 0 -23 -10 -42 -39 -70 -53 -54 -87 -53 -141 2 -36 37 -40 47 -40 90 0
34 -8 65 -27 102 -23 43 -29 67 -31 142 -6 157 36 242 161 326 69 46 116 50
187 18z m-3391 -135 c1 -43 -37 -151 -56 -158 -27 -11 -26 0 4 44 22 34 28 57
32 114 4 70 19 70 20 0z m-119 -49 c0 -11 -27 -65 -58 -113 -18 -29 -38 -75
-45 -102 -6 -28 -15 -50 -19 -50 -5 0 -8 -9 -8 -20 0 -11 -6 -20 -14 -20 -8 0
-34 -34 -57 -76 -70 -128 -149 -222 -243 -293 -47 -36 -86 -69 -86 -74 0 -5
-9 -7 -21 -4 -11 3 -18 2 -16 -1 2 -4 9 -21 16 -39 7 -18 22 -35 33 -39 12 -3
72 -3 135 1 l115 7 -3 -33 c-4 -59 0 -75 30 -120 17 -24 28 -45 27 -47 -8 -7
-587 81 -606 93 -17 10 -12 78 30 403 22 171 40 316 40 322 0 6 9 6 26 0 33
-13 90 -13 115 1 11 6 34 7 51 4 26 -6 29 -10 25 -34 -17 -87 -58 -455 -53
-476 12 -47 25 -25 32 54 4 49 11 82 19 85 14 5 27 46 15 46 -5 0 -10 -8 -13
-17 -4 -21 -1 31 10 132 6 62 7 66 14 35 l6 -35 2 31 c0 17 3 47 6 65 4 29 4
31 -4 9 -7 -18 -8 -7 -4 35 3 33 8 63 12 66 3 3 38 11 76 18 113 21 235 68
235 91 0 6 6 10 14 10 21 0 112 49 132 71 16 18 34 25 34 14z m3060 -4 c0 -5
-7 -11 -15 -15 -15 -5 -20 5 -8 17 9 10 23 9 23 -2z m60 -121 c0 -92 -1 -100
-19 -100 -28 0 -34 15 -21 54 9 28 7 42 -9 84 -19 47 -19 51 -3 55 52 14 52
14 52 -93z m-422 -99 c-4 -16 -77 -23 -95 -9 -22 17 -5 26 47 25 37 -2 50 -6
48 -16z m9 -225 c2 -116 6 -153 18 -166 18 -20 19 -51 3 -69 -10 -11 -10 -13
0 -7 9 5 12 -8 12 -54 0 -81 18 -194 40 -250 17 -43 17 -48 1 -100 l-17 -55
-7 49 c-4 26 -4 53 0 60 3 6 2 7 -3 3 -10 -10 -32 164 -33 268 -1 49 -4 66
-11 55 -5 -8 -10 -44 -10 -80 0 -36 -4 -71 -9 -79 -5 -8 -35 -24 -67 -36 -58
-22 -82 -45 -47 -45 10 0 29 7 42 17 23 15 25 15 37 -2 8 -10 14 -27 14 -37 0
-10 6 -18 14 -18 14 0 26 -21 26 -44 0 -8 -13 -13 -31 -14 -29 -1 -79 -35 -79
-53 0 -4 25 1 57 12 31 10 57 18 59 17 1 -2 9 -29 17 -62 l16 -59 -61 7 c-34
3 -67 11 -74 17 -8 6 -14 7 -14 2 0 -9 -118 0 -147 12 -8 3 -13 24 -13 54 0
46 2 51 27 57 23 6 32 1 64 -37 20 -24 41 -41 45 -37 4 4 1 14 -5 22 -12 15
-3 49 12 47 21 -3 27 0 22 10 -4 6 3 13 14 16 25 6 23 26 -4 32 -13 2 -16 -1
-12 -13 10 -25 -15 -31 -34 -7 -10 11 -20 27 -22 34 -4 9 -8 8 -16 -3 -10 -13
-13 -13 -22 3 -5 9 -17 17 -26 17 -13 0 -13 -2 -2 -16 11 -14 10 -15 -11 -12
-25 3 -41 28 -18 28 8 0 33 20 57 43 40 41 42 47 39 93 -3 42 -7 51 -37 71
-40 27 -54 22 -23 -7 22 -21 21 -35 -6 -77 -16 -25 -60 -31 -80 -11 -7 7 -22
13 -35 13 -32 0 -28 29 5 33 33 4 65 50 109 155 17 42 36 77 41 77 5 0 7 4 4
9 -4 5 16 72 42 148 49 137 49 138 83 143 24 4 37 1 44 -10 5 -8 10 -82 12
-164z m-272 82 c-18 -66 -109 -298 -116 -298 -9 0 -39 -53 -39 -69 0 -5 8 -17
17 -26 18 -19 11 -40 -20 -59 -14 -9 -22 -6 -40 16 -14 18 -43 33 -82 44 -33
9 -67 21 -75 25 -8 5 -76 27 -150 50 -160 48 -186 65 -85 53 39 -4 104 -8 145
-9 66 0 84 5 154 38 43 20 87 37 99 37 29 0 105 83 134 146 20 44 43 72 61 74
2 0 1 -10 -3 -22z m1139 -55 c-11 -70 -77 -583 -122 -947 -14 -117 -20 -141
-37 -151 -20 -13 -149 4 -1712 225 -325 46 -437 59 -452 51 -11 -6 -33 -11
-49 -11 -24 0 -32 6 -43 32 -7 18 -14 35 -15 37 -2 2 -23 -8 -48 -23 -24 -14
-58 -26 -75 -26 -59 0 -175 31 -228 61 -29 17 -53 28 -53 25 0 -16 -59 19 -73
43 -21 36 -22 79 -1 153 31 109 148 180 294 180 94 0 141 -17 240 -87 98 -69
120 -96 120 -146 l0 -39 55 0 c30 0 160 -16 288 -35 127 -19 432 -61 677 -95
245 -33 541 -74 658 -92 182 -26 215 -29 227 -17 9 9 28 137 56 364 24 193 44
351 45 353 1 2 19 6 40 9 67 11 121 79 112 141 -3 24 0 28 21 30 18 2 79 30
87 41 0 1 -5 -34 -12 -76z m-670 10 c7 -16 17 -57 21 -93 4 -36 16 -123 26
-195 10 -71 19 -155 20 -185 1 -53 1 -54 13 -26 l13 28 6 -38 c9 -50 9 -184 0
-253 l-6 -54 -89 7 c-48 4 -95 9 -103 12 -19 8 -18 37 0 89 23 62 33 178 40
445 7 237 13 290 34 290 6 0 17 -12 25 -27z m-676 -98 c-45 -44 -63 -55 -90
-55 -18 -1 -61 -7 -95 -14 -35 -7 -63 -11 -63 -7 0 4 33 17 73 30 39 12 106
40 147 61 41 22 77 39 80 39 3 0 -20 -24 -52 -54z m-2234 29 c35 -34 6 -104
-43 -104 -24 0 -51 31 -51 58 0 52 59 81 94 46z m465 -193 c-4 -38 -18 -95
-31 -127 -25 -64 -39 -72 -104 -59 -31 5 -34 9 -34 39 0 59 12 96 38 119 14
12 41 39 61 60 19 20 45 37 56 37 20 0 21 -3 14 -69z m-489 34 c0 -8 -7 -15
-15 -15 -8 0 -15 7 -15 15 0 8 7 15 15 15 8 0 15 -7 15 -15z m1 -117 c2 -137
-2 -170 -18 -155 -7 8 -14 218 -7 229 15 25 24 -2 25 -74z m1877 50 c-5 -15
-23 -11 -26 6 -2 11 2 14 13 10 9 -4 14 -11 13 -16z m-273 -18 c7 -11 277 -98
436 -140 127 -33 180 -37 203 -15 24 24 37 18 30 -12 -14 -56 -24 -73 -48 -79
-39 -9 -59 -1 -81 33 -11 18 -23 32 -27 33 -15 0 -7 -65 12 -107 l19 -43 71 0
c69 0 94 -14 45 -26 -14 -3 -25 -10 -25 -15 0 -12 17 -11 25 1 10 16 35 11 36
-7 0 -10 5 -2 11 17 5 19 14 39 19 45 12 13 12 -24 -1 -62 -9 -25 -16 -30 -47
-31 -20 -1 -42 3 -50 9 -7 6 -50 13 -95 15 -45 2 -120 10 -167 19 -48 8 -137
21 -199 30 -63 8 -118 17 -122 20 -5 3 -12 19 -15 37 -4 17 -16 45 -26 62 -10
17 -19 36 -19 41 0 6 16 -16 34 -48 41 -72 64 -96 42 -45 -39 93 -46 105 -59
117 -12 9 -16 9 -19 -1 -3 -8 -9 -5 -17 9 -10 20 -9 22 6 16 12 -4 8 3 -9 20
-16 14 -28 31 -28 37 0 5 -13 10 -30 10 -43 0 -37 16 18 44 52 28 68 31 77 16z
m-1325 -81 l0 -52 -41 7 c-34 5 -40 4 -36 -8 11 -29 -15 -75 -67 -119 l-52
-45 -36 33 -36 33 47 52 c38 43 53 53 88 57 24 3 40 10 37 15 -3 5 -18 6 -33
3 -15 -3 -38 -1 -52 4 -26 11 -20 14 26 12 17 -1 57 12 90 28 33 16 61 30 63
30 1 1 2 -22 2 -50z m1080 6 c9 -11 8 -20 -10 -45 -12 -17 -27 -29 -34 -27
-18 6 -19 47 0 68 21 23 28 24 44 4z m190 -102 c27 -50 50 -102 52 -115 3 -26
4 -26 -107 -9 -114 18 -111 16 -125 68 -18 64 -16 72 31 115 29 27 48 36 71
35 28 -2 34 -10 78 -94z m-1604 -33 c59 -49 111 -90 116 -90 4 0 8 -6 8 -14 0
-8 24 -36 54 -63 81 -72 100 -133 42 -133 -50 0 -379 273 -392 325 -8 33 12
65 40 65 15 0 63 -33 132 -90z m2584 70 c0 -12 -43 -30 -68 -30 -10 1 -2 9 18
19 42 23 50 24 50 11z m-166 -23 c15 -24 -3 -35 -20 -13 -8 11 -14 24 -14 29
0 13 22 3 34 -16z m-1865 -28 c80 -11 146 -21 148 -23 2 -1 -4 -19 -12 -39
-18 -42 -20 -119 -4 -149 9 -17 8 -19 -8 -14 -43 12 -389 57 -425 54 -33 -2
-44 2 -60 22 l-19 24 45 42 c26 23 53 59 62 79 l15 36 57 -6 c31 -4 122 -15
201 -26z m2750 -253 c-8 -85 -13 -96 -38 -96 -16 0 -20 16 -30 148 -7 81 -14
163 -17 182 -3 27 7 12 44 -62 l48 -96 -7 -76z m-872 187 c-3 -15 0 -37 5 -48
11 -20 10 -20 -10 -2 -11 11 -19 25 -16 33 2 8 6 21 9 29 8 26 18 16 12 -12z
m-2451 -124 l29 -31 -40 -34 c-62 -54 -93 -68 -122 -55 -22 10 -23 12 -9 38
21 40 85 113 100 113 7 0 25 -14 42 -31z m2502 -16 l27 -28 -24 -3 c-25 -4
-51 19 -51 45 0 21 19 15 48 -14z"/>
<path d="M1814 4602 c-34 -22 -72 -161 -66 -241 l4 -55 14 33 c8 18 14 51 14
72 0 21 12 70 26 109 26 72 28 95 8 82z"/>
<path d="M716 3782 c-3 -6 -1 -14 5 -17 14 -9 20 -2 10 14 -6 8 -11 9 -15 3z"/>
<path d="M1512 3950 c-88 -66 -146 -126 -136 -141 3 -6 29 12 57 38 29 27 80
69 115 93 34 24 62 47 62 51 0 24 -27 13 -98 -41z"/>
<path d="M2360 3258 c1 -29 7 -66 14 -83 12 -29 13 -29 20 -7 4 12 11 22 15
22 16 0 61 -58 91 -120 18 -36 38 -72 45 -80 7 -8 16 -26 20 -40 4 -14 18 -47
30 -75 13 -27 31 -97 40 -155 20 -125 23 -136 34 -124 10 10 -10 174 -28 242
-7 23 -20 57 -30 75 -10 17 -24 50 -31 72 -7 22 -19 44 -26 48 -8 4 -14 14
-14 20 0 49 -135 257 -166 257 -10 0 -14 -14 -14 -52z"/>
<path d="M2377 2708 c-4 -78 -10 -160 -13 -180 -7 -40 7 -53 21 -20 12 27 19
307 8 327 -7 12 -12 -27 -16 -127z"/>
<path d="M1812 2742 c-6 -37 -14 -166 -18 -287 -5 -178 -3 -239 10 -317 15
-92 43 -184 53 -174 2 2 -5 69 -17 148 -36 245 -36 328 -4 636 9 85 -10 81
-24 -6z"/>
<path d="M4036 2434 c-4 -44 -18 -115 -31 -157 -27 -89 -103 -218 -154 -264
-26 -23 -31 -32 -19 -33 9 0 19 -3 22 -8 2 -4 -9 -59 -25 -122 -28 -108 -31
-149 -9 -135 16 10 81 158 77 176 -2 9 3 21 13 27 10 6 38 52 64 104 77 156
110 329 83 438 l-13 55 -8 -81z"/>
<path d="M3190 2230 c-19 -11 -49 -27 -67 -36 -30 -16 -53 -50 -53 -78 0 -8
17 3 39 23 21 20 58 53 82 73 50 42 49 47 -1 18z"/>
<path d="M3601 1954 c-29 -84 -78 -124 -148 -124 -21 0 -51 7 -67 15 -41 22
-45 10 -5 -14 100 -61 248 20 237 128 l-3 35 -14 -40z"/>
<path d="M3748 1859 c-7 -22 3 -49 18 -49 18 0 18 21 0 45 -10 15 -14 15 -18
4z"/>
<path d="M3680 1803 c0 -23 17 -49 26 -41 9 10 -4 58 -16 58 -6 0 -10 -8 -10
-17z"/>
<path d="M1553 1740 c7 -57 46 -153 54 -131 7 18 -16 152 -29 169 -22 26 -31
12 -25 -38z"/>
<path d="M2605 1458 c-28 -73 -60 -93 -144 -93 -44 0 -75 5 -87 15 -10 8 -1
-5 21 -28 38 -40 77 -54 90 -32 3 6 14 10 24 10 34 0 109 67 121 108 23 83 5
98 -25 20z"/>
<path d="M3164 1382 c-47 -26 -88 -61 -80 -69 9 -10 137 59 133 71 -5 16 -21
16 -53 -2z"/>
<path d="M2424 1245 c3 -9 6 -19 6 -21 0 -2 7 -4 16 -4 22 0 13 34 -10 38 -14
3 -17 0 -12 -13z"/>
<path d="M2340 1226 c0 -14 5 -28 11 -31 15 -10 18 -4 12 28 -7 34 -23 36 -23
3z"/>
<path d="M989 2173 l-24 -28 28 24 c25 23 32 31 24 31 -2 0 -14 -12 -28 -27z"/>
<path d="M2513 1933 c-55 -7 -37 -23 26 -23 59 0 86 12 55 24 -16 6 -23 6 -81
-1z"/>
<path d="M2410 1895 c-8 -9 -8 -15 -2 -15 18 0 42 12 42 21 0 14 -26 10 -40
-6z"/>
<path d="M4491 1640 c-26 -6 -41 -30 -19 -30 67 -1 168 -9 191 -15 21 -6 27
-4 27 9 0 28 -133 52 -199 36z"/>
<path d="M3758 729 c-49 -25 -49 -34 -1 -14 40 17 49 23 42 29 -2 2 -21 -5
-41 -15z"/>
<path d="M3340 965 c0 -20 22 -65 32 -65 11 0 10 37 -2 61 -13 22 -30 25 -30
4z"/>
<path d="M2285 588 c-12 -118 -11 -123 5 -123 10 0 17 15 21 45 4 25 10 62 14
82 7 36 -5 68 -25 68 -4 0 -10 -33 -15 -72z"/>
<path d="M2450 517 c0 -7 -9 -29 -20 -50 -21 -39 -26 -77 -11 -77 11 0 47 72
56 113 6 21 4 27 -9 27 -9 0 -16 -6 -16 -13z"/>
<path d="M432 4795 c0 -16 2 -22 5 -12 2 9 2 23 0 30 -3 6 -5 -1 -5 -18z"/>
<path d="M4550 4610 c6 -11 15 -20 21 -20 6 0 6 7 -1 20 -6 11 -15 20 -21 20
-6 0 -6 -7 1 -20z"/>
<path d="M4976 3765 c-9 -9 -14 -20 -11 -25 3 -4 -2 -11 -11 -14 -9 -4 -15 -9
-12 -12 3 -2 -8 -19 -23 -35 -16 -17 -29 -42 -29 -55 0 -23 55 -84 77 -84 6 0
32 34 57 76 49 84 49 89 -2 137 -27 26 -31 27 -46 12z"/>
<path d="M2043 313 c9 -2 23 -2 30 0 6 3 -1 5 -18 5 -16 0 -22 -2 -12 -5z"/>
</g>
</svg>
